<?xml version="1.0" encoding="UTF-8"?>
<svg id="_レイヤー_1" data-name="レイヤー 1" xmlns="http://www.w3.org/2000/svg" viewBox="0 0 1998.34 870.71">
  <defs>
    <style>
      .cls-1 {
        stroke: #dfe1ff;
        stroke-miterlimit: 10;
        stroke-width: 30px;
      }

      .cls-1, .cls-2 {
        fill: none;
      }

      .cls-2 {
        stroke: #000;
        stroke-width: .3px;
      }
    </style>
  </defs>
  <path class="cls-1" d="M40.86,55.21c237.53,81.38,423.61,81.75,550,66.87,287.39-33.84,402-56.17,402-56.17,36.19-7.05,156.88-31.13,306,2.67,67.27,15.25,129.46,40.18,154,97.63,26.02,60.93-3.15,137.86-45,182.93-53.91,58.07-143.94,62.88-324,72.51-63.03,3.37-137.03,7.33-233-5.51-42.68-5.71-62.89-11.16-125-18-88.36-9.74-133.49-14.37-180-3-34.32,8.39-96.26,23.54-132,76-48.24,70.82-24.62,174.23,20,237,65.47,92.11,181.07,103.62,239,109.39,128.59,12.8,162.73-33.64,337-65.53,188.26-34.45,349.51-17.8,416-9.36,119.7,15.18,189.49,41.07,344,45.47,80.03,2.28,146.23-2.25,191-6.69"/>
  <g>
    <polyline class="cls-2" points="1.98 834.71 27.5 834.71 27.5 868.73"/>
    <polyline class="cls-2" points="36 868.73 36 843.22 1.98 843.22"/>
  </g>
  <g>
    <polyline class="cls-2" points="1.98 36 27.5 36 27.5 1.98"/>
    <polyline class="cls-2" points="36 1.98 36 27.5 1.98 27.5"/>
  </g>
  <g>
    <polyline class="cls-2" points="1996.36 36 1970.84 36 1970.84 1.98"/>
    <polyline class="cls-2" points="1962.34 1.98 1962.34 27.5 1996.36 27.5"/>
  </g>
  <g>
    <polyline class="cls-2" points="1996.36 834.71 1970.84 834.71 1970.84 868.73"/>
    <polyline class="cls-2" points="1962.34 868.73 1962.34 843.22 1996.36 843.22"/>
  </g>
  <g>
    <line class="cls-2" y1="435.36" x2="24" y2="435.36"/>
    <line class="cls-2" x1="18" y1="399.36" x2="18" y2="471.36"/>
  </g>
  <g>
    <line class="cls-2" x1="1998.34" y1="435.36" x2="1974.34" y2="435.36"/>
    <line class="cls-2" x1="1980.34" y1="471.36" x2="1980.34" y2="399.36"/>
  </g>
  <g>
    <line class="cls-2" x1="963.17" y1="18" x2="1035.17" y2="18"/>
    <line class="cls-2" x1="999.17" x2="999.17" y2="24"/>
  </g>
  <g>
    <line class="cls-2" x1="1035.17" y1="852.71" x2="963.17" y2="852.71"/>
    <line class="cls-2" x1="999.17" y1="870.71" x2="999.17" y2="846.71"/>
  </g>
</svg>