<svg id="_レイヤー_1" data-name="レイヤー 1" xmlns="http://www.w3.org/2000/svg" viewBox="0 0 915.93 534.92"><defs><style>.cls-5{fill:none;stroke:#000;stroke-miterlimit:10;stroke-width:4px}</style></defs><path style="fill:#246aa2" d="M910.29 149.96c-9.13 11.21-39.86 51.73-40 112-.14 59.81 29.92 100.26 39 111.62-48.85-14.92-82.55-59.94-83-110.62v-1c-.02-51.39 34.24-97.29 84-112Zm-658.14-38.64c35.26-11.08 73.38-19.22 114.14-22.82 46.26-4.09 90.02-1.8 130.89 4.89.65.11 1.3.21 1.95.33 48.9 8.2 93.63 22.69 133.53 40.11 18.49 8.06 35.93 16.76 52.28 25.74a675.56 675.56 0 0 1 22.62 13.01c7.85 4.72 15.41 9.47 22.65 14.22a711.82 711.82 0 0 1 23.7 16.2 733.83 733.83 0 0 1 21.11 15.66c21.77 16.74 38.86 31.85 50.79 42.86l.3.27s-.05.06-.08.1c-65.67-14.61-214.42-53.12-408.74-53.93-107.73-.45-204.74 9.91-288.15 24.55-5.47-8.17-14.78-13.55-25.35-13.55-14.68 0-26.95 10.38-29.85 24.21A1619.24 1619.24 0 0 0 3.2 259.73C48 218.32 133.15 149.17 250.04 111.98c.7-.22 1.4-.44 2.11-.66Zm240.64 23.14c85.55 11.66 158.2 31.89 215.44 52.04-52.96-32.78-167.23-92.36-313.98-82.14-43.8 3.06-82.33 11.76-114.61 22.05 58.79-3.52 131.25-3.11 213.15 8.05Z"/><path style="fill:#fff" d="M133.81 407.04C64.1 358.64 23.56 298 2.64 260.57l-.12-.21.43-.4c.08-.08.17-.15.25-.23a1619.24 1619.24 0 0 1 70.74-16.56c-.43 2.03-.65 4.13-.65 6.29 0 4.69 1.06 9.14 2.96 13.11 4.9 10.28 15.39 17.39 27.54 17.39 15.96 0 29.07-12.27 30.39-27.89.07-.86.11-1.73.11-2.61 0-6.27-1.9-12.1-5.15-16.95 83.41-14.64 180.42-25 288.15-24.55 194.32.81 343.07 39.32 408.74 53.93-.01.02-.03.05-.05.07a517.878 517.878 0 0 1-45.33 55.11 511.39 511.39 0 0 1-19.76 19.81A493.648 493.648 0 0 1 743 353.07a505.69 505.69 0 0 1-21.61 17.65 499.153 499.153 0 0 1-63.56 41.75 454.95 454.95 0 0 1-10.54 5.67c-5.55 2.9-18.74 9.65-38.33 17.59-31.47 12.77-79.44 28.61-138.67 36.41-42.58 5.62-114.31 15.07-195.37-3.15-15.18-3.41-30.69-7.8-46.39-13.36a396.333 396.333 0 0 1-57.24-25.49c-13.34-7.25-25.82-15-37.48-23.1Zm248.36-82.59c40.24-20.29 65.9-44.93 80.12-60.87-16.91-4.81-41-9.48-69.71-8.03-72.07 3.64-119.11 43.14-132.42 55.17 1.29-.06 18.02-.59 27.84 10.88 7.88 9.21 7.97 22.25 0 32.36 22.35-3.28 56.99-10.76 94.17-29.51Z"/><path style="fill:#fdd451" d="M780.65 317.07c3.3 9.32 6.59 18.65 9.89 27.97-7.21-1.97-25.64-7.05-29.06-7.96 0-.01-.01-.01-.02 0-.1-.04-.19-.06-.26-.08h-.02c-.03-.02-.06-.02-.09-.03-.07-.01-.12-.03-.15-.04h-.01l-.04-.05a511.39 511.39 0 0 0 19.76-19.81ZM753.91 203c8.75-3.92 17.49-7.85 26.24-11.77-1.71 9.15-3.41 18.28-5.13 27.43A733.83 733.83 0 0 0 753.91 203Zm-9.94 151.2c2.6 9.59 5.19 19.17 7.79 28.75-7.44-2.66-27.15-9.72-28.8-10.28-.02-.01-.03-.01-.04-.02-.01.01-.02 0-.03-.01-.03 0-.04-.01-.04-.01l-1.46-1.91A505.69 505.69 0 0 0 743 353.07l.97 1.13Zm-35.81-182.61c9.06-4.07 18.12-8.13 27.17-12.19-1.71 9.14-3.41 18.26-5.12 27.4-7.24-4.75-14.8-9.5-22.65-14.22l.6-.99Z"/><path style="fill:#246aa2" d="M663.69 90.9c14.52-10.16 32.47-15.31 50.16-14.39-5.52 7.67-11.07 15.37-15.57 23.68-9.71 17.94-14.31 38.61-13.12 58.98l-.22.4c-16.35-8.98-33.79-17.68-52.28-25.74l.32-.73c5.2-16.94 16.19-32.04 30.71-42.2Zm-5.86 321.57.06.1c-8.88 18.93-7.1 40.91-5.13 61.74-20.99-.99-40.15-17.9-43.8-38.58 19.59-7.94 32.78-14.69 38.33-17.59 3.57-1.86 7.08-3.75 10.54-5.67Z"/><path style="fill:#fff" d="M708.23 186.5a1093.589 1093.589 0 0 0-215.44-52.04 1094.212 1094.212 0 0 0-213.15-8.05c32.28-10.29 70.81-18.99 114.61-22.05C541 94.14 655.27 153.72 708.23 186.5Z"/><path style="fill:#8ca4c9" d="m499.18 93.39-.05.33c-.65-.12-1.3-.22-1.95-.33-40.87-6.69-84.63-8.98-130.89-4.89-40.76 3.6-78.88 11.74-114.14 22.82 2.42-14.49 6.83-32.61 15.09-52.46a240.108 240.108 0 0 1 31.55-54.4c2.42 9.37 7.81 22.54 20 30 7.27 4.45 14.61 5.36 29 7 15.3 1.74 26.73 1.41 30.74 1.35 24.47-.36 52.35 5.23 73.26 14.65 11.27 5.08 29.41 15.22 47.39 35.93Zm-36.89 170.19c-14.22 15.94-39.88 40.58-80.12 60.87-37.18 18.75-71.82 26.23-94.17 29.51 7.97-10.11 7.88-23.15 0-32.36-9.82-11.47-26.55-10.94-27.84-10.88 13.31-12.03 60.35-51.53 132.42-55.17 28.71-1.45 52.8 3.22 69.71 8.03ZM274.83 470.82c1.16 20.05-1.35 40.3-7.38 59.45-.35 1.11-.89 2.38-2.02 2.61-.6.12-1.21-.09-1.77-.31-14.27-5.52-26.28-16.65-32.85-30.47-6.57-13.81-7.64-30.15-2.91-44.7l.63-1.77c15.7 5.56 31.21 9.95 46.39 13.36l-.09 1.83Z"/><path style="fill:none;stroke:#000;stroke-miterlimit:10;stroke-width:4px" d="M252.04 111.98c.04-.22.07-.44.11-.66 2.42-14.49 6.83-32.61 15.09-52.46a240.108 240.108 0 0 1 31.55-54.4c2.42 9.37 7.81 22.54 20 30 7.27 4.45 14.61 5.36 29 7 15.3 1.74 26.73 1.41 30.74 1.35 24.47-.36 52.35 5.23 73.26 14.65 11.27 5.08 29.41 15.22 47.39 35.93m133.8 39.71c5.2-16.94 16.19-32.04 30.71-42.2s32.47-15.31 50.16-14.39c-5.52 7.67-11.07 15.37-15.57 23.68-9.71 17.94-14.31 38.61-13.12 58.98m23 12.42c9.06-4.07 18.12-8.13 27.17-12.19-1.71 9.14-3.41 18.26-5.12 27.4-.05.29-.11.59-.16.88m22.93 15.74.93-.42c8.75-3.92 17.49-7.85 26.24-11.77-1.71 9.15-3.41 18.28-5.13 27.43-.05.28-.11.57-.16.85"/><path style="fill:none;stroke:#000;stroke-miterlimit:10;stroke-width:4px" d="M825.81 261.52c-11.93-11.01-29.02-26.12-50.79-42.86A733.83 733.83 0 0 0 753.91 203a711.82 711.82 0 0 0-23.7-16.2c-7.24-4.75-14.8-9.5-22.65-14.22a675.56 675.56 0 0 0-22.62-13.01c-16.35-8.98-33.79-17.68-52.28-25.74-39.9-17.42-84.63-31.91-133.53-40.11-.65-.12-1.3-.22-1.95-.33-40.87-6.69-84.63-8.98-130.89-4.89-40.76 3.6-78.88 11.74-114.14 22.82-.71.22-1.41.44-2.11.66C133.15 149.17 48 218.32 3.2 259.73c-.08.08-.17.15-.25.23l-.43.4.12.21C23.56 298 64.1 358.64 133.81 407.04c11.66 8.1 24.14 15.85 37.48 23.1a396.333 396.333 0 0 0 57.24 25.49c15.7 5.56 31.21 9.95 46.39 13.36 81.06 18.22 152.79 8.77 195.37 3.15 59.23-7.8 107.2-23.64 138.67-36.41 19.59-7.94 32.78-14.69 38.33-17.59 3.57-1.86 7.08-3.75 10.54-5.67a499.153 499.153 0 0 0 63.56-41.75A505.69 505.69 0 0 0 743 353.07c6.28-5.41 12.24-10.82 17.89-16.19a511.39 511.39 0 0 0 19.76-19.81 517.878 517.878 0 0 0 45.33-55.11c.02-.02.04-.05.05-.07.03-.04.06-.07.08-.1l-.3-.27Zm-709.57-5.26c-2.46 4.02-6.89 6.7-11.95 6.7-3.24 0-6.23-1.11-8.61-2.97a13.948 13.948 0 0 1-5.39-11.03 13.997 13.997 0 0 1 14-14c1.91 0 3.72.38 5.38 1.08 5.06 2.1 8.62 7.1 8.62 12.92 0 2.67-.75 5.17-2.05 7.3Z"/><path d="M118.29 248.96a13.987 13.987 0 0 1-14 14c-3.24 0-6.23-1.11-8.61-2.97a13.948 13.948 0 0 1-5.39-11.03 13.997 13.997 0 0 1 14-14c1.91 0 3.72.38 5.38 1.08 5.06 2.1 8.62 7.1 8.62 12.92Z"/><path style="fill:#fff" d="M134.29 249.46c0 .88-.04 1.75-.11 2.61-1.32 15.62-14.43 27.89-30.39 27.89-12.15 0-22.64-7.11-27.54-17.39-1.9-3.97-2.96-8.42-2.96-13.11 0-2.16.22-4.26.65-6.29 2.9-13.83 15.17-24.21 29.85-24.21 10.57 0 19.88 5.38 25.35 13.55a30.35 30.35 0 0 1 5.15 16.95Zm-18.05 6.8a13.97 13.97 0 0 0 2.05-7.3c0-5.82-3.56-10.82-8.62-12.92-1.66-.7-3.47-1.08-5.38-1.08a13.995 13.995 0 0 0-14 14c0 4.48 2.11 8.48 5.39 11.03 2.38 1.86 5.37 2.97 8.61 2.97 5.06 0 9.49-2.68 11.95-6.7Z"/><path style="fill:none;stroke:#000;stroke-miterlimit:10;stroke-width:4px" d="M129.14 232.51c-5.47-8.17-14.78-13.55-25.35-13.55-14.68 0-26.95 10.38-29.85 24.21-.43 2.03-.65 4.13-.65 6.29 0 4.69 1.06 9.14 2.96 13.11 4.9 10.28 15.39 17.39 27.54 17.39 15.96 0 29.07-12.27 30.39-27.89.07-.86.11-1.73.11-2.61 0-6.27-1.9-12.1-5.15-16.95Z"/><path style="fill:none;stroke:#000;stroke-miterlimit:10;stroke-width:4px" d="M116.24 256.26c-2.46 4.02-6.89 6.7-11.95 6.7-3.24 0-6.23-1.11-8.61-2.97a13.948 13.948 0 0 1-5.39-11.03 13.997 13.997 0 0 1 14-14c1.91 0 3.72.38 5.38 1.08 5.06 2.1 8.62 7.1 8.62 12.92 0 2.67-.75 5.17-2.05 7.3Zm100.05 3.7c.02 15.76-2.07 46.12-19 79-19.84 38.52-49.14 59.32-63.48 68.08-.53.32-1.03.63-1.52.92m95.61 49.44c-4.73 14.55-3.66 30.89 2.91 44.7 6.57 13.82 18.58 24.95 32.85 30.47.56.22 1.17.43 1.77.31 1.13-.23 1.67-1.5 2.02-2.61 6.03-19.15 8.54-39.4 7.38-59.45m334.04-35.58c.03.16.05.33.09.49 3.65 20.68 22.81 37.59 43.8 38.58-1.97-20.83-3.75-42.81 5.13-61.74m64.96-39.94s.01.01.04.01c.01.01.02.02.03.01 0 .01.02.01.04.02.21.09.75.29 1.7.63"/><path style="fill:none;stroke:#000;stroke-miterlimit:10;stroke-width:4px" d="M743.97 354.2c2.6 9.59 5.19 19.17 7.79 28.75-7.44-2.66-27.15-9.72-28.8-10.28m38.52-35.59c.3.1.73.22 1.31.38m-1.59-.46c.07.02.15.05.26.08m-.53-.15h.01"/><path style="fill:none;stroke:#000;stroke-miterlimit:10;stroke-width:4px" d="M780.61 316.96s.03.07.04.11c3.3 9.32 6.59 18.65 9.89 27.97-7.21-1.97-25.64-7.05-29.06-7.96 0-.01-.01-.01-.02 0-.1-.04-.19-.06-.26-.08h-.02c-.03-.02-.06-.02-.09-.03-.07-.01-.12-.03-.15-.04m-378.77-12.48c40.24-20.29 65.9-44.93 80.12-60.87-16.91-4.81-41-9.48-69.71-8.03-72.07 3.64-119.11 43.14-132.42 55.17 1.29-.06 18.02-.59 27.84 10.88 7.88 9.21 7.97 22.25 0 32.36 22.35-3.28 56.99-10.76 94.17-29.51ZM28.29 300.96c1 .43 13.38 5.5 25-2 10.61-6.85 11.87-18.57 12-20m845-129c-9.13 11.21-39.86 51.73-40 112-.14 59.81 29.92 100.26 39 111.62-48.85-14.92-82.55-59.94-83-110.62v-1c-.02-51.39 34.24-97.29 84-112Z"/></svg>